<?xml version="1.0" encoding="utf-8"?>
<!-- Generator: Adobe Illustrator 22.0.1, SVG Export Plug-In . SVG Version: 6.00 Build 0)  -->
<svg version="1.1" id="Layer_1" xmlns="http://www.w3.org/2000/svg" xmlns:xlink="http://www.w3.org/1999/xlink" x="0px" y="0px"
	 viewBox="0 0 595.3 595.3" style="enable-background:new 0 0 595.3 595.3;" xml:space="preserve">
<path d="M161.9,41.7c2.7,2,5.7,3.7,8,6.1c6.7,6.8,13.6,8.4,21.9,2.7c3.5-2.4,7.7-4,11.8-4.8c5.8-1,6.7-4.7,7.3-9.4
	c2.1-16.2,2.2-16.2,18.1-20.1c49.2-11.9,98.2-11.2,147.1,2.1c5.5,1.5,9.1,3.8,8.8,9.8c-0.8,12.7,6.8,17.1,17.4,22
	c12.8,6.1,23.2,6.6,34.8-1.4c2.2-1.5,7.2-1.4,9.7,0.1c48.2,28.9,85.1,68.5,110.7,118.5c0.8,1.5-0.2,3.9-0.4,5.9
	c0,0.4-0.4,0.8-0.8,1.1c-13.1,9.1-11.4,20.4-4.5,32.2c1,1.8,3.4,3.5,5.4,3.9c19.4,3.4,19.3,3.4,23.8,22.4
	c11.4,48.2,10.1,96-2.8,143.8c-1.6,6.1-4,9.7-10.7,9.3c-11.2-0.7-18.1,4.4-20.1,15.7c-0.2,0.9-0.5,1.8-1,2.5
	c-4.2,5.9-2.2,10.2,2.4,15.1c9.5,10.1,9.2,10.4,2.1,22.7c-27.2,47.2-64.5,84.2-112,111c-3.5,2-6.2,2.4-9-0.6
	c-9.4-10.3-19.2-9.9-31.5-3.9c-8.6,4.2-14.2,8.2-14,18.2c0.2,7.4-3.1,11.1-11,13.1c-51.6,12.9-103,12.8-154.3-1.5
	c-3.6-1-5.6-2.5-5.6-6.3c0.1-13.4-5.8-21-19.3-25c-8.1-2.4-13.8-3-19.6,2.9c-6.5,6.7-12.5,6-20.6,1.3
	C106.6,523,69.5,485.3,42.6,437.3c-3.9-6.9-4.4-12.3,1.9-17.6c7-5.8,7.5-11.9,3.8-20.5c-3.5-8.1-7.5-12.7-16.4-12.3
	c-8.7,0.4-12.6-3.4-14.9-12.2c-13.4-52.8-13-105.2,1.8-157.6c1-3.5,2.6-5.6,6.5-5.4c14.1,0.6,20.2-6.9,25.5-19.7
	c4.8-11.9,6.1-21.2-1.9-31.4c-3-3.9-2.8-7.7,0-12.2c27.2-44.1,63.2-79,108.5-104.4C158.7,43.2,160.1,42.6,161.9,41.7z M268,310.8
	c-36.8,14.5-73.3,28.8-109.6,43.6c-2.6,1-4.6,5.3-5.4,8.4c-7.5,29-14.5,58.1-22.1,87.1c-1.2,4.7-0.3,7.8,3.1,10.6
	c12.7,10.4,25.1,21.3,38.4,30.9c9.1,6.6,19.6,11.5,30.5,17.8c-0.1-3.2-0.1-4.5-0.3-5.8c-4.3-29.2-8.6-58.4-13.2-87.5
	c-0.8-5.1,0.2-8.5,4-12.3c25.9-25.5,51.5-51.3,77.1-76.9c1.7-1.7,3.2-3.5,4.8-5.1C272.6,317.6,270.5,314.5,268,310.8z M393.8,88.6
	c4.8,32.9,9.4,64.6,13.8,96.2c0.3,2.3-0.7,5.6-2.4,7.3c-13.4,13.8-27,27.3-40.6,40.8c-14.4,14.3-28.8,28.6-43.2,42.9
	c2.6,3.9,4.8,7.2,7,10.6c36.8-14.5,73.3-28.8,109.6-43.5c2.3-0.9,4.5-4.3,5.2-7c7.9-30.1,15.5-60.2,23-90.4c0.5-1.8,0-4.7-1.2-6
	C444.9,118.1,421.5,101.3,393.8,88.6z M286.5,328.6c-15,37-29.8,73.5-44.3,110.1c-0.9,2.2-0.2,5.8,1.1,8
	c14.7,26.1,29.6,52.1,44.8,78c1.2,2.1,4.8,4,7.2,4c8.8,0.1,17.6-0.3,26.3-1.1c19.3-1.8,38-6,56.9-13.3c-1.9-1.7-3.1-2.9-4.5-3.9
	c-23.8-17.9-47.5-35.9-71.4-53.7c-3-2.2-4.3-4.3-4.2-8.1c0.2-36.6,0.1-73.1,0.1-109.7c0-2.6,0-5.3,0-8
	C294.1,330,290.6,329.4,286.5,328.6z M88.3,202.5c2.7-0.3,4.3-0.4,5.8-0.6c29.9-4.3,59.7-8.7,89.6-12.8c2.5-0.3,6,0.9,7.9,2.7
	c14.4,14,28.5,28.2,42.7,42.4c13.6,13.7,27.2,27.4,40.8,41.1c3.8-2.6,6.9-4.7,10.2-6.9c-0.8-2.1-1.5-4-2.3-5.8
	c-14.1-33.6-28.3-67.2-42.3-100.9c-2-4.7-4.9-6.9-9.6-8.1c-25.1-6.5-50.3-12.5-74.9-20.3c-11.8-3.7-19.2-1.6-27.1,7.6
	C113,159.5,99,179.1,88.3,202.5z M217.1,82.4c2.5,2,4.4,3.5,6.3,5c23.5,17.5,47,35.1,70.7,52.4c3.4,2.5,4.8,4.9,4.8,9.3
	c-0.2,36.6-0.1,73.1-0.1,109.7c0,2.4,0,4.8,0,7.1c4.3,0.9,7.8,1.7,11.5,2.4c0.7-1.5,1.3-2.6,1.8-3.9c13.6-33.6,27.1-67.3,41-100.8
	c2.5-5.9,1.8-10.4-1.2-15.6c-11.1-19.6-21.9-39.4-32.9-59.1c-4-7-6.7-16.7-12.8-20.1c-6.1-3.4-15.8-1-23.8-0.5
	C260.2,69.6,238.7,74.2,217.1,82.4z M507.4,394.9c-2.4,0.1-3.7,0.1-5,0.2c-29.9,4.1-59.8,8.1-89.6,12.5c-3.9,0.6-6.1-0.3-8.7-2.9
	c-26-26.2-52.2-52.3-78.4-78.5c-1.7-1.7-3.5-3.3-5.1-4.8c-3.5,2.5-6.4,4.6-9.6,6.8c15.4,36.6,30.6,72.9,46.1,109.1
	c0.9,2.1,3.6,4.2,5.8,4.8c29.5,8.1,59.1,15.9,88.7,23.6c1.8,0.5,4.6,0,5.9-1.2C478.5,444.8,494.8,421.9,507.4,394.9z M267.8,286.3
	c-1.8-0.8-3.3-1.7-5-2.4c-33.7-13.9-67.5-27.6-101.2-41.7c-4.4-1.9-7.9-1.7-12,0.7c-25.9,15-52,29.8-77.9,44.9
	c-2.1,1.2-4.3,4.8-4.2,7.2c0.5,13.3,0.9,26.6,2.8,39.7c2,13.2,5.8,26.1,9.1,40.6c2.8-3.1,4.2-4.4,5.4-6
	c18.1-22.2,36.2-44.4,54.1-66.7c2.3-2.8,4.4-4.2,8.3-4.1c37,0.2,74,0.1,111,0.1c2.4,0,4.8,0,7,0C266.4,294,267.1,290.3,267.8,286.3z
	 M328.2,310c0.9,0.5,1.4,0.9,2,1.2c35.4,14.6,70.8,29.3,106.3,43.6c2.9,1.2,7.6,0.4,10.5-1.2c25.8-14.4,51.3-29.2,77.1-43.7
	c3.4-1.9,4.9-4.1,4.6-8c-0.9-12.1-0.7-24.4-2.6-36.4c-2.2-14.3-6-28.4-9.5-44c-2.6,2.7-3.7,3.8-4.7,5
	c-18.6,22.7-37.2,45.3-55.7,68.1c-2.5,3.1-4.7,4.4-8.8,4.4c-36.6-0.2-73.1-0.1-109.7-0.1c-2.4,0-4.8,0-7.2,0
	C329.7,303,328.9,306.5,328.2,310z"/>
</svg>
